<svg width="20" height="20" viewBox="0 0 20 20" fill="none" xmlns="http://www.w3.org/2000/svg">
<g clip-path="url(#clip0_645_2)">
<path d="M10 20C15.56 20 20 15.5 20 10C20 4.5 15.5 0 10 0C4.44 0 0 4.44 0 9.96C0 15.5 4.46 20 10 20Z" fill="#EAB5F7"/>
<path d="M10 14.4C7.56 14.4 5.5 12.4 5.5 9.96002C5.5 7.52002 7.5 5.52002 9.86 5.52002V6.76002C8.3 6.76002 6.8 8.16002 6.8 9.92002C6.8 11.62 8.24 13.08 10 13.08C11.7 13.08 13.14 11.68 13.14 9.92002C13.14 9.42002 13.04 8.86002 12.78 8.36002C11.92 9.26002 10.64 10.66 10.64 10.7L10.24 11.14L8.4 9.44002L9.26 8.50002L10.2 9.30002C10.84 8.60002 12 7.30002 12.5 6.86002L13 6.36002L13.44 6.86002C14.14 7.66002 14.54 8.72002 14.54 9.82002C14.46 12.4 12.4 14.4 10 14.4Z" fill="#010101"/>
</g>
<defs>
<clipPath id="clip0_645_2">
<rect width="20" height="20" fill="white"/>
</clipPath>
</defs>
</svg>
